<svg width="1325" height="1181" viewBox="0 0 1325 1181" fill="none" xmlns="http://www.w3.org/2000/svg">
<rect width="1324" height="1181" transform="translate(0.5)" fill="white"/>
<path d="M1003.46 768.05C1003.46 768.05 1109.5 709.31 1109.5 472.715C1109.5 223.066 907.911 24 659.237 24C410.564 24 215.5 221.434 215.5 471.083C215.5 887.164 341.117 934.483 747.332 1153.13C801.168 1169.45 822.376 1131.92 822.376 1082.97C822.376 768.05 861.529 901.849 1003.46 768.05Z" fill="#FF0000"/>
<path d="M978.221 751.057C978.221 751.057 1077.5 696.105 1077.5 474.771C1077.5 241.226 888.764 55 655.945 55C423.127 55 240.5 239.699 240.5 473.245C240.5 862.487 358.108 906.754 738.423 1111.3C788.827 1126.56 793.114 1111.16 793.114 1065.37C793.114 770.766 845.34 876.225 978.221 751.057Z" fill="white"/>
<path d="M53.0229 338.776C78.1292 309.506 117.166 285.105 148.932 268.394C173.749 255.34 201.638 274.09 201.638 302.131V692.068C201.638 718.614 176.386 737.192 152.251 726.138C119.489 711.133 78.066 686.949 53.0229 652.775C6.71706 589.586 4.61266 395.216 53.0229 338.776Z" fill="#FF0000"/>
<path d="M68.6854 377.776C81.3522 344.846 126.041 318.215 155.302 303.785C167.854 297.595 181.762 306.98 181.762 320.977V677.897C181.762 690.083 170.996 699.115 159.448 695.226C132.877 686.276 89.4846 664.656 68.6854 615.539C37.5162 541.933 49.3715 427.987 68.6854 377.776Z" fill="white"/>
<path d="M1272.12 338.776C1247.01 309.506 1207.97 285.105 1176.21 268.394C1151.39 255.34 1123.5 274.09 1123.5 302.131V692.068C1123.5 718.614 1148.75 737.192 1172.89 726.138C1205.65 711.133 1247.07 686.949 1272.12 652.775C1318.42 589.586 1320.53 395.216 1272.12 338.776Z" fill="#FF0000"/>
<path d="M285.5 495.5C285.5 406.306 357.806 334 447 334H878C967.194 334 1039.5 406.306 1039.5 495.5C1039.5 584.694 967.194 657 878 657H447C357.806 657 285.5 584.694 285.5 495.5Z" fill="#FF0000"/>
<path d="M316.5 495.5C316.5 419.009 378.509 357 455 357H869C945.491 357 1007.5 419.009 1007.5 495.5C1007.5 571.991 945.491 634 869 634H455C378.509 634 316.5 571.991 316.5 495.5Z" fill="white"/>
<path d="M1261.85 377.986C1249.15 344.952 1204.29 318.241 1174.96 303.783C1162.41 297.595 1148.5 306.98 1148.5 320.977V678.897C1148.5 691.083 1159.27 700.116 1170.82 696.23C1197.45 687.27 1240.99 665.6 1261.85 616.33C1293.1 542.544 1281.21 428.319 1261.85 377.986Z" fill="white"/>
</svg>
