<svg xmlns="http://www.w3.org/2000/svg" width="24" height="24" fill="none" viewBox="0 0 24 24"><g clip-path="url(#PJ9nLM-uWIa)"><path stroke="#fff" stroke-linecap="round" stroke-linejoin="round" stroke-width="1.5" d="m20.652 14.43-1.61-.93c.11-.48.16-.99.16-1.5s-.05-1.02-.16-1.5l1.61-.93c.24-.13.32-.44.19-.68l-1.75-3.03a.505.505 0 0 0-.69-.18l-1.62.94c-.74-.68-1.61-1.2-2.58-1.5V3.25c0-.28-.22-.5-.5-.5h-3.5c-.28 0-.5.22-.5.5v1.87c-.97.3-1.84.82-2.58 1.5l-1.62-.94a.505.505 0 0 0-.69.18l-1.75 3.03c-.13.24-.05.55.19.68l1.61.93c-.11.48-.16.99-.16 1.5s.05 1.02.16 1.5l-1.61.93c-.24.13-.32.44-.19.68l1.75 3.03c.14.24.45.32.69.18l1.62-.94c.74.68 1.61 1.2 2.58 1.5v1.87c0 .28.22.5.5.5h3.5c.28 0 .5-.22.5-.5v-1.87c.97-.3 1.84-.82 2.58-1.5l1.62.94c.24.14.55.06.69-.18l1.75-3.03c.13-.24.05-.55-.19-.68m-5.56-1.59c-.08.27-.18.54-.33.78-.28.5-.69.91-1.19 1.19a3.15 3.15 0 0 1-1.62.44 3.15 3.15 0 0 1-1.62-.44c-.5-.28-.91-.69-1.19-1.19a3.15 3.15 0 0 1-.44-1.62 3.15 3.15 0 0 1 .44-1.62c.28-.5.69-.91 1.19-1.19a3.15 3.15 0 0 1 1.62-.44 3.15 3.15 0 0 1 1.62.44c.5.28.91.69 1.19 1.19a3.15 3.15 0 0 1 .44 1.62c0 .29-.04.57-.11.84"/></g><defs><clipPath id="PJ9nLM-uWIa"><path fill="#fff" d="M0 0h24v24H0z"/></clipPath></defs></svg>